HIERARCHY
ROOT Hips
{
 OFFSET 0.000000 0.000000 0.000000
 CHANNELS 6 Xposition Yposition Zposition Yrotation Xrotation Zrotation
 JOINT Chest
 {
  OFFSET 0.000000 14.634200 -0.016200
  CHANNELS 3 Yrotation Xrotation Zrotation
  JOINT Chest2
  {
   OFFSET 0.000000 8.932900 0.033000
   CHANNELS 3 Yrotation Xrotation Zrotation
   JOINT Chest3
   {
    OFFSET 0.000000 8.892300 0.000000
    CHANNELS 3 Yrotation Xrotation Zrotation
    JOINT Chest4
    {
     OFFSET 0.000000 8.883200 0.000000
     CHANNELS 3 Yrotation Xrotation Zrotation
     JOINT Neck
     {
      OFFSET 0.000000 13.173600 0.000000
      CHANNELS 3 Yrotation Xrotation Zrotation
      JOINT Head
      {
       OFFSET 0.000000 8.324600 0.069800
       CHANNELS 3 Yrotation Xrotation Zrotation
       End Site
       {
        OFFSET 0.000000 15.692400 0.036900
       }
      }
     }
     JOINT RightCollar
     {
      OFFSET -2.619200 8.772200 0.000000
      CHANNELS 3 Yrotation Xrotation Zrotation
      JOINT RightShoulder
      {
       OFFSET -12.922000 0.000000 0.000000
       CHANNELS 3 Yrotation Xrotation Zrotation
       JOINT RightElbow
       {
        OFFSET 0.000000 -27.880900 0.000000
        CHANNELS 3 Yrotation Xrotation Zrotation
        JOINT RightWrist
        {
         OFFSET 0.000000 -22.758700 0.008200
         CHANNELS 3 Yrotation Xrotation Zrotation
         End Site
         {
          OFFSET 0.000000 -16.965000 0.000000
         }
        }
       }
      }
     }
     JOINT LeftCollar
     {
      OFFSET 2.619200 8.772200 0.000000
      CHANNELS 3 Yrotation Xrotation Zrotation
      JOINT LeftShoulder
      {
       OFFSET 12.922000 0.000000 0.000000
       CHANNELS 3 Yrotation Xrotation Zrotation
       JOINT LeftElbow
       {
        OFFSET 0.000000 -27.880900 0.000000
        CHANNELS 3 Yrotation Xrotation Zrotation
        JOINT LeftWrist
        {
         OFFSET 0.000000 -22.758700 0.008200
         CHANNELS 3 Yrotation Xrotation Zrotation
         End Site
         {
          OFFSET 0.000000 -16.965000 0.000000
         }
        }
       }
      }
     }
    }
   }
  }
 }
 JOINT RightHip
 {
  OFFSET -12.026800 0.080100 0.008100
  CHANNELS 3 Yrotation Xrotation Zrotation
  JOINT RightKnee
  {
   OFFSET 0.000000 -42.600800 -0.000200
   CHANNELS 3 Yrotation Xrotation Zrotation
   JOINT RightAnkle
   {
    OFFSET 0.000000 -38.219300 0.054300
    CHANNELS 3 Yrotation Xrotation Zrotation
    JOINT RightToe
    {
     OFFSET 0.000000 -9.685800 15.804700
     CHANNELS 3 Yrotation Xrotation Zrotation
     End Site
     {
      OFFSET 0.000000 -1.422300 5.761700
     }
    }
   }
  }
 }
 JOINT LeftHip
 {
  OFFSET 12.026800 0.080100 0.008100
  CHANNELS 3 Yrotation Xrotation Zrotation
  JOINT LeftKnee
  {
   OFFSET 0.000000 -42.600800 -0.000200
   CHANNELS 3 Yrotation Xrotation Zrotation
   JOINT LeftAnkle
   {
    OFFSET 0.000000 -38.219300 0.054300
    CHANNELS 3 Yrotation Xrotation Zrotation
    JOINT LeftToe
    {
     OFFSET 0.000000 -9.685800 15.804700
     CHANNELS 3 Yrotation Xrotation Zrotation
     End Site
     {
      OFFSET 0.000000 -1.422300 5.761700
     }
    }
   }
  }
 }
}
MOTION
Frames: 12
Frame Time: 0.008333
-14.988401 129.724430 30.116290 169.134573 -25.593092 0.757440 0.055280 20.530744 1.085807 0.008480 2.621345 0.142914 -0.038829 4.286060 0.218596 0.017927 17.607667 0.924675 -3.617571 19.274123 0.400975 -3.949738 -5.280875 1.254445 7.819966 -0.155797 -8.254855 15.262388 -17.268721 1.058478 177.557274 -47.015199 -158.607844 6.081204 -3.660893 -14.854393 -7.493253 -0.495517 2.509160 -5.374050 -15.151166 -3.976676 131.216619 -58.531585 -169.649252 -4.172365 -33.070137 19.429096 -0.055037 -47.502758 9.815488 -28.558118 76.339873 -40.277156 -7.697242 -18.389661 10.162533 -0.000408 -0.011962 -0.000250 17.855089 -47.048599 -19.232233 81.134692 76.176933 90.348775 6.802682 1.123307 -4.263477 -0.000337 -0.005771 -0.000207
-14.988177 129.724492 30.118395 169.129304 -25.597274 0.753138 0.046673 20.532191 1.081674 -0.000945 2.622258 0.142132 -0.020750 4.288392 0.222323 -0.004775 17.608365 0.914584 -3.595823 19.260576 0.407857 -3.936873 -5.332387 1.271125 7.826286 -0.162019 -8.247480 15.251852 -17.259258 1.045075 177.742901 -47.031238 -158.731535 6.055769 -3.497053 -14.659171 -7.476623 -0.494365 2.512594 -5.394422 -15.160312 -3.972995 131.201598 -58.513514 -169.635842 -4.170227 -33.069147 19.408519 -0.061530 -47.498368 9.826314 -28.571455 76.331193 -40.285824 -7.688489 -18.381838 10.155510 0.002330 -0.010829 0.001428 17.836088 -47.054769 -19.217831 81.165148 76.170637 90.374096 6.796862 1.129094 -4.266005 -0.000615 -0.005683 -0.000377
-14.989211 129.724607 30.120054 169.125146 -25.601380 0.753322 0.046140 20.535369 1.079606 -0.015599 2.620034 0.135272 -0.022117 4.289654 0.221280 -0.002121 17.606926 0.912895 -3.580580 19.249157 0.415430 -3.919980 -5.391639 1.291483 7.830983 -0.163851 -8.238780 15.244058 -17.250282 1.026417 177.880066 -47.039476 -158.824872 6.034867 -3.320211 -14.473847 -7.461024 -0.489489 2.515919 -5.420224 -15.173139 -3.970886 131.153179 -58.503012 -169.586457 -4.157166 -33.059971 19.367065 -0.065332 -47.493441 9.831449 -28.567162 76.329324 -40.282581 -7.689915 -18.378676 10.156119 0.002506 -0.009774 0.001535 17.821009 -47.058655 -19.209986 81.182146 76.163250 90.379459 6.795212 1.140247 -4.260025 -0.002688 -0.004535 -0.001647
-14.988792 129.725201 30.120883 169.119500 -25.608976 0.749107 0.039143 20.539741 1.075704 -0.016051 2.620162 0.134913 -0.023206 4.290010 0.220641 0.006353 17.599925 0.909720 -3.574154 19.222921 0.433870 -3.899819 -5.438380 1.304061 7.827475 -0.160338 -8.225705 15.239301 -17.242530 1.004802 177.950231 -47.042068 -158.876154 6.002041 -3.156781 -14.303522 -7.473220 -0.478517 2.525150 -5.429831 -15.182657 -3.976666 131.096621 -58.494820 -169.518166 -4.130372 -33.032192 19.298081 -0.082742 -47.482994 9.847741 -28.555349 76.326714 -40.276072 -7.681592 -18.375824 10.156904 0.000815 -0.008789 0.000500 17.800987 -47.057846 -19.194668 81.194446 76.155712 90.386125 6.801358 1.146741 -4.265607 -0.002127 -0.004579 -0.001304
-14.989995 129.725475 30.122033 169.117688 -25.612787 0.749308 0.040570 20.528546 1.068013 -0.019316 2.627955 0.137525 -0.023800 4.289288 0.220174 0.016053 17.587615 0.906985 -3.570690 19.199049 0.455552 -3.882061 -5.482196 1.317067 7.818249 -0.146923 -8.210208 15.234942 -17.236787 0.990268 178.045047 -47.040084 -158.942267 6.010626 -2.998749 -14.162575 -7.491148 -0.455282 2.531097 -5.444888 -15.183051 -3.983072 131.055295 -58.485359 -169.459010 -4.094581 -32.986896 19.200940 -0.083731 -47.479113 9.849834 -28.563054 76.323882 -40.283717 -7.676711 -18.371353 10.155829 0.001098 -0.007723 0.000673 17.787735 -47.055788 -19.190946 81.201225 76.147949 90.385694 6.806517 1.146642 -4.267661 -0.002328 -0.002685 -0.001427
-14.990323 129.726041 30.122680 169.114589 -25.618487 0.747249 0.050189 20.517862 1.068405 -0.021767 2.633539 0.138396 -0.022879 4.286094 0.219232 0.021412 17.580234 0.906752 -3.541772 19.108739 0.482141 -3.887152 -5.459234 1.326420 7.807206 -0.129808 -8.197600 15.236246 -17.234141 0.985397 178.111625 -47.042866 -158.981860 6.019290 -2.868036 -14.052829 -7.508879 -0.431804 2.530292 -5.454546 -15.175859 -3.987376 131.028270 -58.472817 -169.413844 -4.059469 -32.929971 19.086531 -0.090859 -47.471981 9.862214 -28.566839 76.321990 -40.292537 -7.678686 -18.368889 10.158555 0.000723 -0.007634 0.000443 17.779680 -47.051447 -19.184294 81.211246 76.155066 90.393326 6.833933 1.147295 -4.276127 0.002523 -0.000676 0.001546
-14.990943 129.726473 30.123564 169.113430 -25.622374 0.745475 0.054790 20.513780 1.069489 -0.011516 2.603699 0.130726 -0.020133 4.275888 0.217914 0.013343 17.619853 0.918448 -3.533671 19.087610 0.489145 -3.866469 -5.516994 1.346276 7.799912 -0.122906 -8.191646 15.222634 -17.228857 0.967860 178.220324 -47.065377 -159.055203 6.026004 -2.773314 -13.958430 -7.520188 -0.422751 2.527933 -5.451260 -15.162469 -4.003658 131.032943 -58.458651 -169.405365 -4.029749 -32.866703 18.968911 -0.097517 -47.465879 9.871051 -28.563402 76.319933 -40.294507 -7.679662 -18.367117 10.162786 -0.000659 -0.006122 -0.000404 17.772461 -47.048496 -19.179119 81.210512 76.156730 90.391956 6.841173 1.150300 -4.277669 0.006670 0.000475 0.004088
-14.992603 129.726602 30.124915 169.111918 -25.623202 0.747646 0.057660 20.506784 1.066072 -0.007421 2.594230 0.128492 -0.018858 4.271028 0.217517 0.018418 17.609039 0.915707 -3.529891 19.091614 0.504245 -3.843513 -5.574045 1.364443 7.784997 -0.093526 -8.172251 15.196773 -17.211518 0.955197 178.368628 -47.098415 -159.143827 6.030988 -2.698325 -13.872020 -7.544538 -0.385908 2.526540 -5.449166 -15.146438 -4.010381 131.074119 -58.449163 -169.434858 -4.018585 -32.811781 18.873497 -0.105994 -47.465019 9.878324 -28.571940 76.318034 -40.309985 -7.680174 -18.368664 10.169923 0.000368 -0.007222 0.000226 17.766903 -47.048085 -19.179230 81.201579 76.157393 90.382247 6.823689 1.155919 -4.270863 0.005403 0.001125 0.003311
-14.992493 129.726834 30.126329 169.111107 -25.625192 0.742792 0.067427 20.494675 1.069386 -0.007569 2.592377 0.129142 -0.017588 4.266943 0.217443 0.023319 17.596714 0.913876 -3.515784 19.066338 0.521911 -3.828395 -5.603007 1.379217 7.771737 -0.064385 -8.155999 15.178964 -17.196471 0.946795 178.513859 -47.142799 -159.229046 6.025490 -2.632537 -13.791242 -7.560921 -0.344542 2.522942 -5.446645 -15.139385 -4.041541 131.137220 -58.458136 -169.496255 -4.022859 -32.747127 18.790344 -0.114785 -47.462857 9.889086 -28.556928 76.316433 -40.293473 -7.682723 -18.367015 10.169416 0.002083 -0.007971 0.001276 17.752385 -47.050950 -19.170309 81.215262 76.154401 90.390710 6.832653 1.160143 -4.267507 0.007305 0.003353 0.004477
-14.992876 129.727651 30.126436 169.112821 -25.632484 0.739952 0.070599 20.488954 1.069466 -0.005405 2.593966 0.129688 -0.013322 4.260647 0.216153 0.035568 17.570064 0.913167 -3.480304 19.002707 0.553711 -3.838122 -5.583609 1.388704 7.749494 -0.024003 -8.136165 15.147788 -17.174808 0.940146 178.685447 -47.186298 -159.322546 6.022962 -2.587249 -13.732858 -7.580079 -0.284887 2.516026 -5.453636 -15.149243 -4.043865 131.198601 -58.434534 -169.536731 -4.012362 -32.651661 18.712587 -0.120754 -47.453803 9.893655 -28.547164 76.316126 -40.285107 -7.688086 -18.369310 10.175749 0.001184 -0.008135 0.000725 17.735305 -47.046491 -19.159684 81.211003 76.146149 90.376875 6.828946 1.165139 -4.260621 0.006159 0.004224 0.003775
-14.993668 129.728233 30.126811 169.117593 -25.638262 0.737556 0.075671 20.481752 1.068801 -0.011748 2.602941 0.132910 -0.003534 4.249245 0.213064 0.028766 17.579010 0.917676 -3.452514 18.956381 0.566779 -3.824171 -5.620770 1.405987 7.743754 -0.018003 -8.131709 15.115012 -17.155899 0.939282 178.850642 -47.223306 -159.401655 6.032609 -2.559921 -13.710262 -7.578301 -0.274889 2.512375 -5.460905 -15.153933 -4.053285 131.269111 -58.380332 -169.589922 -3.992658 -32.539521 18.659740 -0.126140 -47.447017 9.894196 -28.541503 76.315808 -40.278279 -7.694469 -18.372256 10.178087 0.001016 -0.008195 0.000623 17.722915 -47.044836 -19.156704 81.217228 76.143556 90.373237 6.833909 1.169143 -4.251042 0.002833 0.003962 0.001736
-14.994302 129.728195 30.128306 169.121576 -25.638958 0.734605 0.083998 20.470928 1.069099 -0.010787 2.601781 0.132974 -0.008636 4.254749 0.216813 0.041594 17.568210 0.914315 -3.434162 18.923565 0.590365 -3.809212 -5.660016 1.421815 7.722077 0.001406 -8.114343 15.087916 -17.140627 0.933569 179.007339 -47.248112 -159.470305 6.060437 -2.538317 -13.720860 -7.587913 -0.252836 2.517425 -5.469809 -15.159293 -4.055883 131.270394 -58.371596 -169.594734 -3.999203 -32.511302 18.650676 -0.138425 -47.445283 9.899163 -28.531320 76.315541 -40.270622 -7.696476 -18.376021 10.179634 0.000460 -0.008189 0.000282 17.715052 -47.050468 -19.156377 81.212652 76.140527 90.368805 6.831674 1.180768 -4.251347 0.003866 0.000650 0.002369
